<svg width="1366" height="748" viewBox="0 0 1366 748" fill="none" xmlns="http://www.w3.org/2000/svg">
<g opacity="0.4" filter="url(#filter0_f_3940_301)">
<path d="M147.324 232.281L124.615 292.895V506.557L341.764 518.68H688.067L1203.26 421.698L1195.65 141.338H1080.48L1089.45 389.876H1026.63L989.561 112.226L997.682 347.714H982.456L949.975 97L873.848 106.136L833.246 421.698L404.134 434.904L407.968 264.373L399.955 167.121L341.764 118.63L335.135 242.545L324.733 389.876L282.746 402.162L276.478 191.367L267.962 118.63H235.469L239.941 389.876H221.414L206.945 191.367H188.483L197.97 389.876H166.559L147.324 232.281Z" fill="#660000"/>
</g>
<g opacity="0.4" filter="url(#filter1_f_3940_301)">
<path d="M306.709 318.281L284 378.895V592.557L501.149 604.68H847.452L1362.65 507.698L1355.04 227.338H1239.86L1248.84 475.876H1186.02L1148.95 198.226L1157.07 433.714H1141.84L1109.36 183L1033.23 192.136L992.631 507.698L563.519 520.904L567.352 350.373L559.339 253.121L501.149 204.63L494.52 328.545L484.118 475.876L442.131 488.162L435.862 277.367L427.347 204.63H394.854L399.326 475.876H380.798L366.329 277.367H347.867L357.355 475.876H325.943L306.709 318.281Z" fill="#660000"/>
</g>
<g opacity="0.4" filter="url(#filter2_f_3940_301)">
<path d="M1046.94 366.281L1069.65 426.895V640.557L852.5 652.68H506.197L-9 555.698L-1.38989 275.338H113.785L104.81 523.876H167.633L204.703 246.226L196.582 481.714H211.808L244.289 231L320.416 240.136L361.018 555.698L790.13 568.904L786.296 398.373L794.309 301.121L852.5 252.63L859.129 376.545L869.531 523.876L911.518 536.162L917.786 325.367L926.302 252.63H958.795L954.323 523.876H972.85L987.319 325.367H1005.78L996.294 523.876H1027.71L1046.94 366.281Z" fill="#660000"/>
</g>
<g filter="url(#filter3_f_3940_301)">
<path d="M1273.64 445.805L1289.5 450.706C1290.72 451.083 1292.03 451.025 1293.22 450.541C1296.85 449.057 1300.82 451.726 1300.82 455.647V576.995C1300.82 588.041 1291.87 596.995 1280.82 596.995H857C845.954 596.995 837 588.041 837 576.995V545.935C837 540.217 839.448 534.772 843.724 530.976L848.751 526.515C850.89 524.617 853.412 523.199 856.145 522.358L857.751 521.864C858.788 521.545 859.848 521.311 860.923 521.164L881.241 518.385L888.782 517.609C892.196 517.258 895.643 517.791 898.791 519.157L900.115 519.732C902.628 520.822 905.338 521.385 908.077 521.385H908.343C909.395 521.385 910.446 521.302 911.485 521.136L916.61 520.321C917.65 520.156 918.675 519.908 919.676 519.581L927.358 517.073L930.573 516.251C933.754 515.437 937.086 515.428 940.271 516.224C942.518 516.786 944.845 516.948 947.148 516.705L963.163 515.011L982.726 512.548C986.479 512.075 990.021 510.548 992.941 508.143L994.03 507.247C994.572 506.8 995.162 506.417 995.79 506.103C998.061 504.967 1000.69 504.815 1003.14 505.496C1008.62 507.022 1018 509.096 1029.34 510.137C1044.04 511.487 1053.33 509.575 1056.15 508.45L1083.54 499.613C1084.65 499.256 1085.72 498.803 1086.75 498.26L1114.95 483.349C1116.76 482.391 1118.91 482.327 1120.78 483.175C1122.8 484.091 1125.14 483.939 1127.02 482.769L1142.38 473.206L1150.84 467.871C1153.22 466.37 1156.11 465.911 1158.84 466.6L1167.44 468.774C1169.56 469.311 1171.62 467.705 1171.62 465.513C1171.62 464.563 1172.03 463.657 1172.73 463.019L1174.32 461.583C1175.14 460.841 1176.1 460.273 1177.14 459.913L1181.28 458.488C1183.55 457.706 1185.99 457.56 1188.33 458.066L1191.07 458.658C1193.35 459.149 1195.72 458.551 1197.49 457.041L1197.67 456.893C1200.02 454.883 1203.41 454.619 1206.05 456.238C1207.17 456.928 1208.47 457.293 1209.79 457.293H1216.48C1218.38 457.293 1220.27 457.581 1222.08 458.147C1224.79 458.996 1227.67 459.215 1230.48 458.789L1236.18 457.926C1238.92 457.511 1241.51 456.4 1243.69 454.699C1246.53 452.489 1250.03 451.29 1253.63 451.29H1256.31C1259 451.29 1261.58 450.222 1263.48 448.321C1266.14 445.663 1270.05 444.695 1273.64 445.805Z" fill="#FF0000"/>
</g>
<g filter="url(#filter4_f_3940_301)">
<path d="M298.181 465.805L282.323 470.706C281.102 471.083 279.788 471.025 278.605 470.541C274.976 469.057 271 471.726 271 475.647V596.995C271 608.041 279.954 616.995 291 616.995H714.821C725.867 616.995 734.821 608.041 734.821 596.995V565.935C734.821 560.217 732.374 554.772 728.097 550.976L723.07 546.515C720.931 544.617 718.41 543.199 715.676 542.358L714.07 541.864C713.034 541.545 711.973 541.311 710.899 541.164L690.58 538.385L683.04 537.609C679.626 537.258 676.178 537.791 673.03 539.157L671.706 539.732C669.193 540.822 666.483 541.385 663.744 541.385H663.478C662.426 541.385 661.375 541.302 660.336 541.136L655.211 540.321C654.171 540.156 653.146 539.908 652.145 539.581L644.464 537.073L641.248 536.251C638.068 535.437 634.735 535.428 631.55 536.224C629.304 536.786 626.976 536.948 624.673 536.705L608.658 535.011L589.095 532.548C585.342 532.075 581.8 530.548 578.88 528.143L577.792 527.247C577.25 526.8 576.659 526.417 576.031 526.103C573.761 524.967 571.131 524.815 568.685 525.496C563.206 527.022 553.819 529.096 542.483 530.137C527.786 531.487 518.488 529.575 515.676 528.45L488.282 519.613C487.175 519.256 486.101 518.803 485.073 518.26L456.873 503.349C455.061 502.391 452.907 502.327 451.041 503.175C449.025 504.091 446.685 503.939 444.805 502.769L429.442 493.206L420.983 487.871C418.604 486.37 415.714 485.911 412.986 486.6L404.385 488.774C402.26 489.311 400.198 487.705 400.198 485.513C400.198 484.563 399.796 483.657 399.091 483.019L397.503 481.583C396.684 480.841 395.723 480.273 394.678 479.913L390.543 478.488C388.275 477.706 385.836 477.56 383.491 478.066L380.75 478.658C378.475 479.149 376.101 478.551 374.329 477.041L374.156 476.893C371.799 474.883 368.416 474.619 365.774 476.238C364.649 476.928 363.355 477.293 362.035 477.293H355.338C353.441 477.293 351.554 477.581 349.743 478.147C347.026 478.996 344.152 479.215 341.338 478.789L335.64 477.926C332.901 477.511 330.315 476.4 328.128 474.699C325.287 472.489 321.791 471.29 318.192 471.29H315.507C312.819 471.29 310.241 470.222 308.34 468.321C305.682 465.663 301.772 464.695 298.181 465.805Z" fill="#FF0000"/>
</g>
<g opacity="0.4" filter="url(#filter5_f_3940_301)">
<path d="M73 92L52.5 386.5L1310.5 415L1237 47.5H1208L1174.5 316L1101 281L1042 12.5H1011.5C1002.5 93.5 984.2 153.3 983 164.5C981.8 175.7 824.5 169.167 746 164.5L709.5 30.5H677.5L639 176H548L415 12.5H364L333 145.5L149 164.5L114.5 52.5L73 92Z" fill="#660000"/>
</g>
<path opacity="0.03" d="M228.534 70L89 110.874L166.943 553L337 525.75L228.534 70Z" fill="url(#paint0_linear_3940_301)" stroke="black"/>
<path opacity="0.03" d="M47.0857 76L-48 116.874L5.11429 559L121 531.75L47.0857 76Z" fill="url(#paint1_linear_3940_301)" stroke="black"/>
<path opacity="0.03" d="M1351.53 61L1212 101.874L1289.94 544L1460 516.75L1351.53 61Z" fill="url(#paint2_linear_3940_301)" stroke="black"/>
<path opacity="0.03" d="M383.534 105L244 145.874L321.943 588L492 560.75L383.534 105Z" fill="url(#paint3_linear_3940_301)" stroke="black"/>
<path opacity="0.03" d="M463.534 125L324 165.874L401.943 608L572 580.75L463.534 125Z" fill="url(#paint4_linear_3940_301)" stroke="black"/>
<path opacity="0.03" d="M587.534 154L448 194.874L525.943 637L696 609.75L587.534 154Z" fill="url(#paint5_linear_3940_301)" stroke="black"/>
<path opacity="0.03" d="M1000.53 127L861 167.874L938.943 610L1109 582.75L1000.53 127Z" fill="url(#paint6_linear_3940_301)" stroke="black"/>
<path opacity="0.03" d="M1103.53 125L964 165.874L1041.94 608L1212 580.75L1103.53 125Z" fill="url(#paint7_linear_3940_301)" stroke="black"/>
<path opacity="0.03" d="M1221.53 105L1082 145.874L1159.94 588L1330 560.75L1221.53 105Z" fill="url(#paint8_linear_3940_301)" stroke="black"/>
<path opacity="0.03" d="M880.629 134L820.427 174.874L880.629 609.999L954 582.749L880.629 134Z" fill="url(#paint9_linear_3940_301)" stroke="black"/>
<path opacity="0.03" d="M746.202 127L686 167.874L746.202 602.999L819.574 575.749L746.202 127Z" fill="url(#paint10_linear_3940_301)" stroke="black"/>
<path opacity="0.03" d="M797.202 125L737 165.874L797.202 600.999L870.574 573.749L797.202 125Z" fill="url(#paint11_linear_3940_301)" stroke="black"/>
<path opacity="0.03" d="M130.202 105L70 145.874L130.202 580.999L203.574 553.749L130.202 105Z" fill="url(#paint12_linear_3940_301)" stroke="black"/>
<path opacity="0.03" d="M709.202 132L649 172.874L709.202 607.999L782.574 580.749L709.202 132Z" fill="url(#paint13_linear_3940_301)" stroke="black"/>
<path d="M1349.34 497.15L1367.05 497.699C1367.7 497.719 1368.34 497.795 1368.98 497.925C1374.23 499.005 1378 503.628 1378 508.99V621H909.238C907.94 621 906.644 620.874 905.37 620.622L845.105 608.743C826.223 605.021 822.979 579.39 840.337 571.08L879.007 552.569C880.543 551.834 882.166 551.298 883.838 550.974L907.286 546.43L920.558 543.479C921.548 543.259 922.519 542.964 923.464 542.597L927.768 540.924C930.294 539.942 932.552 538.376 934.356 536.353C935.95 534.567 937.899 533.135 940.078 532.147L956.814 524.561C961.33 522.514 966.447 522.218 971.17 523.73L980.022 526.565C983.634 527.721 987.499 527.827 991.168 526.87L994.873 525.904L999.096 525.041C1001.71 524.508 1004.4 524.502 1007.02 525.024L1008.65 525.35C1010.49 525.718 1012.37 525.824 1014.25 525.666L1031.21 524.233L1056.74 520.222C1059.55 519.78 1062.24 518.741 1064.62 517.175L1066.53 515.916C1067.16 515.504 1067.83 515.157 1068.52 514.879C1070.81 513.968 1073.32 513.847 1075.72 514.384C1081.25 515.623 1090.86 517.331 1102.48 518.183C1114.7 519.079 1123.24 518.202 1127.5 517.355C1128.97 517.061 1130.44 516.752 1131.94 516.626L1163.6 513.957C1167.34 513.641 1171.1 514.387 1174.44 516.109L1180.34 519.152C1184.09 521.085 1188.38 521.723 1192.53 520.965L1193.91 520.712C1197.99 519.968 1202.19 520.866 1205.6 523.209L1206.89 524.093C1210.82 526.784 1215.89 527.126 1220.14 524.987L1220.37 524.868C1223.7 523.195 1227.59 523.09 1231 524.582L1231.64 524.862C1234.11 525.947 1236.91 526.054 1239.46 525.162C1241.65 524.397 1244.03 524.365 1246.24 525.07L1246.88 525.273C1249.47 526.102 1252.27 526.073 1254.85 525.191L1260.23 523.352C1262.4 522.611 1264.7 522.357 1266.98 522.608L1277.29 523.745C1278.55 523.884 1279.74 523.128 1280.14 521.928C1280.59 520.588 1282 519.825 1283.37 520.18L1286.95 521.106C1289.13 521.673 1291.27 520.021 1291.27 517.759C1291.27 516.158 1292.37 514.767 1293.93 514.396L1300.32 512.872C1301.47 512.597 1302.66 512.498 1303.85 512.578L1310.26 513.015C1314.43 513.3 1318.46 511.391 1320.88 507.976C1323.13 504.797 1326.79 502.908 1330.68 502.908H1332.47C1335.46 502.908 1338.36 501.892 1340.7 500.026C1343.15 498.073 1346.21 497.053 1349.34 497.15Z" fill="#380000"/>
<path fill-rule="evenodd" clip-rule="evenodd" d="M5.61441 467.784H3.59891C1.61129 467.784 0 469.395 0 471.383V691.18H680V698.18H1021.61C1026.75 698.18 1031.45 696.235 1035 693.033V698.18H1376C1387.05 698.18 1396 689.225 1396 678.18V600.353C1396 595.709 1392.24 591.945 1387.59 591.945C1386.34 591.945 1385.11 592.223 1383.98 592.76L1382.32 593.549C1379.81 594.742 1377.04 595.284 1374.27 595.125L1366.23 594.663H1362.98C1361.99 594.663 1360.99 594.58 1360.02 594.413L1359.86 594.387C1357.8 594.037 1355.82 593.308 1354.03 592.237C1351.42 590.674 1348.43 589.849 1345.38 589.849H1338.26H1325.5L1314.65 590.924C1312.41 591.146 1310.16 590.989 1307.97 590.462L1304.43 589.604C1302.89 589.232 1301.31 589.044 1299.73 589.044H1299.54C1298.2 589.044 1296.87 589.178 1295.56 589.444L1281.17 592.366L1272.88 593.722C1271.43 593.958 1269.97 594.035 1268.51 593.952L1240.77 592.366L1232.03 591.395C1231.22 591.306 1230.46 590.991 1229.82 590.486C1228.69 589.586 1227.19 589.314 1225.81 589.764L1220.79 591.408C1217.75 592.404 1214.45 592.273 1211.49 591.039L1207.68 589.828C1207.06 589.63 1206.42 590.095 1206.42 590.749C1206.42 591.254 1206.03 591.674 1205.53 591.713L1200.16 592.135C1199.22 592.209 1198.27 592.086 1197.38 591.774L1190.96 589.525C1189.82 589.126 1188.64 588.851 1187.45 588.703L1183.72 588.244C1182.53 588.098 1181.42 587.571 1180.55 586.743C1179.52 585.753 1178.14 585.2 1176.71 585.2H1175.02H1172.39C1171.31 585.2 1170.24 585.351 1169.2 585.65L1164.69 586.949C1163.69 587.239 1162.6 586.991 1161.82 586.292C1161.46 585.971 1161.03 585.74 1160.57 585.617L1158.99 585.2C1157.69 584.668 1156.3 584.394 1154.9 584.394H1149.83H1146.64C1145.5 584.394 1144.37 584.204 1143.3 583.83L1141.76 583.299C1139.73 582.593 1137.49 582.874 1135.69 584.058C1134.56 584.803 1133.24 585.2 1131.89 585.2H1125.08C1123.6 585.2 1122.12 585.463 1120.73 585.978C1119.96 586.264 1119.15 586.473 1118.34 586.602L1116.59 586.878C1114.34 587.233 1112.04 587.201 1109.8 586.784L1107.79 586.408L1101.45 584.908C1100.04 584.573 1098.55 584.656 1097.18 585.148C1095.99 585.578 1094.7 585.697 1093.44 585.492L1087.86 584.585C1087.09 584.459 1086.36 584.159 1085.72 583.706C1084.38 582.748 1082.65 582.501 1081.1 583.042L1077.2 584.394L1073.36 585.935C1070.98 586.893 1068.34 587.014 1065.87 586.279C1064.82 585.964 1063.72 585.804 1062.62 585.804H1057.3C1056.28 585.804 1055.27 585.726 1054.26 585.571L1053.36 585.432C1052.35 585.278 1051.34 585.2 1050.32 585.2H1047.72C1046.55 585.2 1045.38 585.065 1044.24 584.797C1043.1 584.529 1041.93 584.394 1040.76 584.394H1038.6C1037.89 584.394 1037.22 584.601 1036.66 584.958C1035.92 584.776 1035.13 584.68 1034.33 584.68C1030.84 584.68 1027.61 586.525 1025.83 589.531L1025.68 589.792C1023.72 593.107 1020.1 595.069 1016.25 594.893L1011.23 594.663H1007.98C1006.99 594.663 1005.99 594.58 1005.02 594.413L1004.86 594.387C1002.8 594.037 1000.82 593.308 999.031 592.237C996.417 590.674 993.429 589.849 990.383 589.849H983.26H970.501L959.646 590.924C957.411 591.146 955.156 590.989 952.974 590.462L949.427 589.604C947.888 589.232 946.31 589.044 944.727 589.044H944.541C943.204 589.044 941.871 589.178 940.56 589.444L926.174 592.366L920.735 593.255C917.435 593.795 914.051 593.498 910.895 592.392L903.357 589.751C901.792 589.202 900.164 588.851 898.513 588.704L887.397 587.716C885.184 587.52 883.081 586.662 881.361 585.254L880.841 584.828C876.28 581.095 869.533 581.881 865.954 586.564L865.119 587.657L858.603 580.931C855.614 577.846 851.711 575.805 847.472 575.11L834.449 572.976C832.494 572.656 830.597 572.047 828.821 571.169L818.486 566.062C813.938 563.814 808.552 564.075 804.242 566.752C801.32 568.568 797.852 569.299 794.445 568.818L784.914 567.47H773.572C770.607 567.47 767.725 568.449 765.374 570.255C762.279 572.634 758.303 573.55 754.478 572.768L747.809 571.403C746.603 571.156 745.358 571.167 744.157 571.436L743.093 571.674C740.818 572.184 738.967 573.83 738.196 576.031C737.626 577.657 736.456 579.004 734.926 579.795L734.537 579.996C731.589 581.521 728 581.027 725.573 578.762L716.772 570.55C716.071 569.896 715.274 569.354 714.408 568.944C712.401 567.993 710.12 567.791 707.977 568.374L703.609 569.563L700.452 570.591C696.723 571.805 692.659 571.434 689.213 569.563L678.416 562.447L675.37 560.977C671.708 559.208 667.593 558.599 663.575 559.229L652.405 560.982L634.573 564.959L630.789 565.754C625.783 566.807 620.609 564.964 617.396 560.982L616.215 559.229C614.322 556.42 611.607 554.265 608.443 553.059C606.575 552.347 604.593 551.982 602.594 551.982H595.638H594.667C591.021 551.982 587.445 550.986 584.325 549.101L583.205 548.424L581.912 547.792C577.105 545.444 571.439 545.682 566.846 548.424L564.684 549.375C562.729 550.235 560.499 550.222 558.554 549.339C557.239 548.742 556.124 547.778 555.342 546.564L553.029 542.97C552.326 541.879 551.366 540.978 550.233 540.346C547.421 538.777 543.937 539.073 541.429 541.093L541.162 541.308L538.767 542.968C537.75 543.673 536.817 544.493 535.987 545.411L534.951 546.557C532.552 549.212 529.142 550.726 525.564 550.726C523.768 550.726 521.994 550.344 520.357 549.605L514.497 546.959L505.468 542.009C504.617 541.542 503.734 541.138 502.825 540.8L498.289 539.113C495.906 538.227 493.861 536.615 492.443 534.505L491.907 533.708C488.88 529.204 482.958 527.605 478.039 529.897C475.332 531.158 472.19 531.255 469.421 530.136L469.043 529.983C468.054 529.583 467.147 529.003 466.37 528.271L462.616 524.738C461.775 523.947 460.49 523.867 459.558 524.549C458.532 525.299 457.099 525.118 456.292 524.137L454.458 521.908L447.933 513.445L443.48 508.258C440.027 504.235 434.989 501.92 429.687 501.92H426.426C424.229 501.92 422.104 501.141 420.427 499.721L417.495 497.238C415.616 495.646 412.848 495.695 411.026 497.352C409.046 499.153 405.988 499.034 404.154 497.084L400.5 493.199C398.915 491.514 396.81 490.409 394.522 490.063L390.005 489.38C388.921 489.216 387.874 488.867 386.909 488.347L386.592 488.176C385.712 487.702 384.932 487.061 384.297 486.289C382.835 484.512 380.653 483.481 378.351 483.481H373.48H361.047H355.398C352.414 483.481 349.551 484.658 347.429 486.756C344.974 489.183 341.546 490.359 338.117 489.95L331.274 489.132H328.421C327.169 489.132 325.926 488.92 324.746 488.503C322.81 487.82 321.104 486.611 319.817 485.013L319.287 484.354C316.626 481.047 312.61 479.124 308.365 479.124H303.299H292.577C291.222 479.124 289.871 479.262 288.544 479.535L282.275 480.826C278.41 481.621 274.389 481.09 270.862 479.318L269.354 478.56C267.902 477.83 266.299 477.45 264.674 477.45C263.282 477.45 261.904 477.729 260.622 478.27L246.206 484.357L240.029 486.456C237.203 487.416 234.198 487.732 231.234 487.38L205.799 484.357L197.32 482.4C196.361 482.179 195.532 481.579 195.024 480.737C193.945 478.951 191.589 478.436 189.864 479.61L186.112 482.162C183.156 484.174 179.216 483.942 176.516 481.598L174.081 479.99C172.951 479.244 171.444 480.054 171.444 481.409C171.444 482.242 170.841 482.952 170.018 483.086L166.289 483.696C164.668 483.96 163.008 483.565 161.681 482.599L156.087 478.527C154.885 477.652 153.527 477.013 152.087 476.645L149.605 476.01C147.89 475.571 146.449 474.411 145.655 472.83C144.616 470.763 142.501 469.458 140.188 469.458H140.035H137.653C136.428 469.458 135.226 469.791 134.176 470.42L130.635 472.54C129.25 473.37 127.454 472.874 126.69 471.453C126.431 470.971 126.038 470.574 125.558 470.311L124.496 469.729C124.168 469.549 123.859 469.336 123.575 469.093C122.584 468.248 121.324 467.784 120.022 467.784H114.842H111.863C110.609 467.784 109.387 467.389 108.37 466.655L107.725 466.19C105.418 464.525 102.199 465.037 100.522 467.335C99.5488 468.67 97.9966 469.458 96.345 469.458H90.595C88.8142 469.458 87.0833 470.046 85.6708 471.131C84.9469 471.686 84.1342 472.116 83.267 472.4L82.5171 472.646C79.7237 473.562 76.699 473.482 73.9579 472.42L72.7985 471.97L66.6577 468.948C65.2056 468.234 63.4755 468.393 62.1786 469.361C61.0434 470.208 59.5642 470.443 58.2223 469.99L52.9924 468.222C52.1509 467.938 51.426 467.385 50.929 466.649C49.6475 464.751 47.0498 464.289 45.1926 465.629L42.2068 467.784L38.1789 471.145C36.091 472.887 33.1217 473.095 30.8109 471.662C29.8122 471.043 28.6604 470.714 27.4851 470.714H22.8374C21.4716 470.714 20.1141 470.502 18.8132 470.086C17.5123 469.67 16.1548 469.458 14.789 469.458H12.8717C11.6143 469.458 10.3734 469.172 9.24306 468.621C8.11277 468.07 6.87185 467.784 5.61441 467.784Z" fill="#080101"/>
<circle cx="1112.5" cy="169.5" r="0.5" transform="rotate(180 1112.5 169.5)" fill="white"/>
<circle cx="1289.5" cy="181.5" r="0.5" transform="rotate(180 1289.5 181.5)" fill="white"/>
<circle cx="1223.5" cy="195.5" r="0.5" transform="rotate(180 1223.5 195.5)" fill="white"/>
<circle cx="1265.5" cy="221.5" r="0.5" transform="rotate(180 1265.5 221.5)" fill="white"/>
<circle cx="1142.5" cy="141.5" r="0.5" transform="rotate(180 1142.5 141.5)" fill="white"/>
<circle cx="503.5" cy="205.5" r="0.5" transform="rotate(180 503.5 205.5)" fill="white"/>
<circle cx="104.5" cy="403.5" r="0.5" transform="rotate(180 104.5 403.5)" fill="white"/>
<circle cx="75.5" cy="300.5" r="0.5" transform="rotate(180 75.5 300.5)" fill="white"/>
<circle cx="705.5" cy="130.5" r="0.5" transform="rotate(180 705.5 130.5)" fill="white"/>
<circle cx="98.6722" cy="226.232" r="0.5" transform="rotate(153.257 98.6722 226.232)" fill="white"/>
<circle cx="137.672" cy="130.669" r="0.5" transform="rotate(153.257 137.672 130.669)" fill="white"/>
<circle cx="80.6722" cy="174.669" r="0.5" transform="rotate(153.257 80.6722 174.669)" fill="white"/>
<circle cx="815.5" cy="130.5" r="0.5" transform="rotate(180 815.5 130.5)" fill="white"/>
<circle cx="963.5" cy="67.5" r="0.5" transform="rotate(180 963.5 67.5)" fill="white"/>
<circle cx="966.5" cy="159.5" r="0.5" transform="rotate(180 966.5 159.5)" fill="white"/>
<circle cx="196.907" cy="176.732" r="0.5" transform="rotate(153.257 196.907 176.732)" fill="white"/>
<circle cx="115.672" cy="151.669" r="0.5" transform="rotate(153.257 115.672 151.669)" fill="white"/>
<circle cx="467.672" cy="86.6691" r="0.5" transform="rotate(153.257 467.672 86.6691)" fill="white"/>
<circle cx="404.672" cy="194.669" r="0.5" transform="rotate(153.257 404.672 194.669)" fill="white"/>
<circle cx="260.672" cy="85.6691" r="0.5" transform="rotate(153.257 260.672 85.6691)" fill="white"/>
<circle cx="323.672" cy="171.669" r="0.5" transform="rotate(153.257 323.672 171.669)" fill="white"/>
<circle cx="753.5" cy="133.5" r="0.5" transform="rotate(180 753.5 133.5)" fill="white"/>
<circle cx="191.672" cy="239.669" r="0.5" transform="rotate(153.257 191.672 239.669)" fill="white"/>
<circle cx="911.5" cy="51.5" r="0.5" transform="rotate(180 911.5 51.5)" fill="white"/>
<circle cx="1300.5" cy="302.5" r="0.5" transform="rotate(180 1300.5 302.5)" fill="white"/>
<circle cx="1241.5" cy="372.5" r="0.5" transform="rotate(180 1241.5 372.5)" fill="white"/>
<circle cx="1169.5" cy="210.5" r="0.5" transform="rotate(180 1169.5 210.5)" fill="white"/>
<circle cx="468.5" cy="152.5" r="0.5" transform="rotate(180 468.5 152.5)" fill="white"/>
<circle cx="116.5" cy="382.5" r="0.5" transform="rotate(180 116.5 382.5)" fill="white"/>
<circle cx="695.5" cy="160.5" r="0.5" transform="rotate(180 695.5 160.5)" fill="white"/>
<circle cx="103.243" cy="257.521" r="0.5" transform="rotate(153.257 103.243 257.521)" fill="white"/>
<circle cx="1023" cy="222" r="1" transform="rotate(180 1023 222)" fill="white"/>
<circle cx="1256" cy="223" r="1" transform="rotate(180 1256 223)" fill="white"/>
<circle cx="734" cy="62" r="1" transform="rotate(180 734 62)" fill="white"/>
<circle cx="1061" cy="194" r="1" transform="rotate(180 1061 194)" fill="white"/>
<circle cx="1278" cy="164" r="1" transform="rotate(180 1278 164)" fill="white"/>
<circle cx="555" cy="166" r="1" transform="rotate(180 555 166)" fill="white"/>
<circle cx="96" cy="387" r="1" transform="rotate(180 96 387)" fill="white"/>
<circle cx="1250" cy="308" r="1" transform="rotate(180 1250 308)" fill="white"/>
<circle cx="580" cy="162" r="1" transform="rotate(180 580 162)" fill="white"/>
<circle cx="557" cy="91" r="1" transform="rotate(180 557 91)" fill="white"/>
<circle cx="383" cy="133" r="1" transform="rotate(180 383 133)" fill="white"/>
<circle cx="162" cy="368" r="1" transform="rotate(180 162 368)" fill="white"/>
<circle cx="1153" cy="140" r="1" transform="rotate(180 1153 140)" fill="white"/>
<circle cx="1279" cy="403" r="1" transform="rotate(180 1279 403)" fill="white"/>
<circle cx="1277" cy="259" r="1" transform="rotate(180 1277 259)" fill="white"/>
<circle cx="604" cy="153" r="1" transform="rotate(180 604 153)" fill="white"/>
<circle cx="94" cy="368" r="1" transform="rotate(180 94 368)" fill="white"/>
<circle cx="56" cy="319" r="1" transform="rotate(180 56 319)" fill="white"/>
<circle cx="796" cy="154" r="1" transform="rotate(180 796 154)" fill="white"/>
<circle cx="912" cy="168" r="1" transform="rotate(180 912 168)" fill="white"/>
<circle cx="965" cy="132" r="1" transform="rotate(180 965 132)" fill="white"/>
<circle cx="928" cy="93" r="1" transform="rotate(180 928 93)" fill="white"/>
<circle cx="1000" cy="81" r="1" transform="rotate(180 1000 81)" fill="white"/>
<circle cx="190.067" cy="206.494" r="1" transform="rotate(153.257 190.067 206.494)" fill="white"/>
<circle cx="758" cy="124" r="1" transform="rotate(180 758 124)" fill="white"/>
<circle cx="142.634" cy="196.799" r="1" transform="rotate(153.257 142.634 196.799)" fill="white"/>
<circle cx="125.343" cy="154.346" r="1" transform="rotate(153.257 125.343 154.346)" fill="white"/>
<circle cx="1291" cy="382" r="1" transform="rotate(180 1291 382)" fill="white"/>
<circle cx="616" cy="132" r="1" transform="rotate(180 616 132)" fill="white"/>
<circle cx="531" cy="65" r="1" transform="rotate(180 531 65)" fill="white"/>
<defs>
<filter id="filter0_f_3940_301" x="39.2152" y="11.6" width="1249.45" height="592.48" filterUnits="userSpaceOnUse" color-interpolation-filters="sRGB">
<feFlood flood-opacity="0" result="BackgroundImageFix"/>
<feBlend mode="normal" in="SourceGraphic" in2="BackgroundImageFix" result="shape"/>
<feGaussianBlur stdDeviation="42.7" result="effect1_foregroundBlur_3940_301"/>
</filter>
<filter id="filter1_f_3940_301" x="198.6" y="97.6" width="1249.45" height="592.48" filterUnits="userSpaceOnUse" color-interpolation-filters="sRGB">
<feFlood flood-opacity="0" result="BackgroundImageFix"/>
<feBlend mode="normal" in="SourceGraphic" in2="BackgroundImageFix" result="shape"/>
<feGaussianBlur stdDeviation="42.7" result="effect1_foregroundBlur_3940_301"/>
</filter>
<filter id="filter2_f_3940_301" x="-94.4" y="145.6" width="1249.45" height="592.48" filterUnits="userSpaceOnUse" color-interpolation-filters="sRGB">
<feFlood flood-opacity="0" result="BackgroundImageFix"/>
<feBlend mode="normal" in="SourceGraphic" in2="BackgroundImageFix" result="shape"/>
<feGaussianBlur stdDeviation="42.7" result="effect1_foregroundBlur_3940_301"/>
</filter>
<filter id="filter3_f_3940_301" x="706.9" y="315.252" width="724.021" height="411.843" filterUnits="userSpaceOnUse" color-interpolation-filters="sRGB">
<feFlood flood-opacity="0" result="BackgroundImageFix"/>
<feBlend mode="normal" in="SourceGraphic" in2="BackgroundImageFix" result="shape"/>
<feGaussianBlur stdDeviation="65.05" result="effect1_foregroundBlur_3940_301"/>
</filter>
<filter id="filter4_f_3940_301" x="140.9" y="335.252" width="724.021" height="411.843" filterUnits="userSpaceOnUse" color-interpolation-filters="sRGB">
<feFlood flood-opacity="0" result="BackgroundImageFix"/>
<feBlend mode="normal" in="SourceGraphic" in2="BackgroundImageFix" result="shape"/>
<feGaussianBlur stdDeviation="65.05" result="effect1_foregroundBlur_3940_301"/>
</filter>
<filter id="filter5_f_3940_301" x="-32.9" y="-72.9" width="1428.8" height="573.3" filterUnits="userSpaceOnUse" color-interpolation-filters="sRGB">
<feFlood flood-opacity="0" result="BackgroundImageFix"/>
<feBlend mode="normal" in="SourceGraphic" in2="BackgroundImageFix" result="shape"/>
<feGaussianBlur stdDeviation="42.7" result="effect1_foregroundBlur_3940_301"/>
</filter>
<linearGradient id="paint0_linear_3940_301" x1="289.5" y1="537.5" x2="140.5" y2="70" gradientUnits="userSpaceOnUse">
<stop stop-color="white"/>
<stop offset="1" stop-color="white" stop-opacity="0"/>
</linearGradient>
<linearGradient id="paint1_linear_3940_301" x1="88.6311" y1="543.5" x2="-109" y2="120.944" gradientUnits="userSpaceOnUse">
<stop stop-color="white"/>
<stop offset="1" stop-color="white" stop-opacity="0"/>
</linearGradient>
<linearGradient id="paint2_linear_3940_301" x1="1412.5" y1="528.5" x2="1263.5" y2="61" gradientUnits="userSpaceOnUse">
<stop stop-color="white"/>
<stop offset="1" stop-color="white" stop-opacity="0"/>
</linearGradient>
<linearGradient id="paint3_linear_3940_301" x1="444.5" y1="572.5" x2="295.5" y2="105" gradientUnits="userSpaceOnUse">
<stop stop-color="white"/>
<stop offset="1" stop-color="white" stop-opacity="0"/>
</linearGradient>
<linearGradient id="paint4_linear_3940_301" x1="524.5" y1="592.5" x2="375.5" y2="125" gradientUnits="userSpaceOnUse">
<stop stop-color="white"/>
<stop offset="1" stop-color="white" stop-opacity="0"/>
</linearGradient>
<linearGradient id="paint5_linear_3940_301" x1="648.5" y1="621.5" x2="499.5" y2="154" gradientUnits="userSpaceOnUse">
<stop stop-color="white"/>
<stop offset="1" stop-color="white" stop-opacity="0"/>
</linearGradient>
<linearGradient id="paint6_linear_3940_301" x1="1061.5" y1="594.5" x2="912.5" y2="127" gradientUnits="userSpaceOnUse">
<stop stop-color="white"/>
<stop offset="1" stop-color="white" stop-opacity="0"/>
</linearGradient>
<linearGradient id="paint7_linear_3940_301" x1="1164.5" y1="592.5" x2="1015.5" y2="125" gradientUnits="userSpaceOnUse">
<stop stop-color="white"/>
<stop offset="1" stop-color="white" stop-opacity="0"/>
</linearGradient>
<linearGradient id="paint8_linear_3940_301" x1="1282.5" y1="572.5" x2="1133.5" y2="105" gradientUnits="userSpaceOnUse">
<stop stop-color="white"/>
<stop offset="1" stop-color="white" stop-opacity="0"/>
</linearGradient>
<linearGradient id="paint9_linear_3940_301" x1="933.506" y1="594.5" x2="687.385" y2="261.322" gradientUnits="userSpaceOnUse">
<stop stop-color="white"/>
<stop offset="1" stop-color="white" stop-opacity="0"/>
</linearGradient>
<linearGradient id="paint10_linear_3940_301" x1="799.079" y1="587.5" x2="552.959" y2="254.322" gradientUnits="userSpaceOnUse">
<stop stop-color="white"/>
<stop offset="1" stop-color="white" stop-opacity="0"/>
</linearGradient>
<linearGradient id="paint11_linear_3940_301" x1="850.079" y1="585.5" x2="603.959" y2="252.322" gradientUnits="userSpaceOnUse">
<stop stop-color="white"/>
<stop offset="1" stop-color="white" stop-opacity="0"/>
</linearGradient>
<linearGradient id="paint12_linear_3940_301" x1="183.079" y1="565.5" x2="-63.0414" y2="232.322" gradientUnits="userSpaceOnUse">
<stop stop-color="white"/>
<stop offset="1" stop-color="white" stop-opacity="0"/>
</linearGradient>
<linearGradient id="paint13_linear_3940_301" x1="762.079" y1="592.5" x2="515.959" y2="259.322" gradientUnits="userSpaceOnUse">
<stop stop-color="white"/>
<stop offset="1" stop-color="white" stop-opacity="0"/>
</linearGradient>
</defs>
</svg>
