<svg width="1366" height="3492" viewBox="0 0 1366 3492" fill="none" xmlns="http://www.w3.org/2000/svg">
<rect width="1366" height="3492" transform="matrix(1 0 0 -1 0 3492)" fill="#080101"/>
<path d="M249.873 3199C248.549 3199 248.88 3201.57 249.873 3201.57C251.197 3201.14 251.197 3199 249.873 3199Z" fill="#8B8B8B"/>
<path d="M147.873 3268C146.549 3268 146.88 3270.57 147.873 3270.57C149.197 3270.14 149.197 3268 147.873 3268Z" fill="#8B8B8B"/>
<path d="M130.873 3234C129.549 3234 129.88 3236.57 130.873 3236.57C132.197 3236.14 132.197 3234 130.873 3234Z" fill="#8B8B8B"/>
<path d="M388.873 3326C387.549 3326 387.88 3328.57 388.873 3328.57C390.197 3328.14 390.197 3326 388.873 3326Z" fill="#8B8B8B"/>
<g opacity="0.8" filter="url(#filter0_f_3940_302)">
<path d="M145.636 3090C145.636 3090 144.466 3097.73 143.096 3099.1C141.726 3100.47 138.683 3101.64 138.683 3101.64C138.683 3101.64 141.726 3102.81 143.096 3104.18C144.466 3105.55 145.636 3113.27 145.636 3113.27C145.636 3113.27 146.806 3105.55 148.177 3104.18C149.547 3102.81 152.59 3101.64 152.59 3101.64C152.59 3101.64 149.547 3100.47 148.177 3099.1C146.806 3097.73 145.636 3090 145.636 3090Z" fill="white"/>
</g>
<path d="M145.636 3096.25C145.636 3096.25 145.095 3099.82 144.461 3100.46C143.827 3101.09 142.419 3101.63 142.419 3101.63C142.419 3101.63 143.827 3102.17 144.461 3102.81C145.095 3103.44 145.636 3107.02 145.636 3107.02C145.636 3107.02 146.178 3103.44 146.811 3102.81C147.445 3102.17 148.853 3101.63 148.853 3101.63C148.853 3101.63 147.445 3101.09 146.811 3100.46C146.178 3099.82 145.636 3096.25 145.636 3096.25Z" fill="white"/>
<g opacity="0.8" filter="url(#filter1_f_3940_302)">
<path d="M1138.64 3306C1138.64 3306 1137.47 3313.73 1136.1 3315.1C1134.73 3316.47 1131.68 3317.64 1131.68 3317.64C1131.68 3317.64 1134.73 3318.81 1136.1 3320.18C1137.47 3321.55 1138.64 3329.27 1138.64 3329.27C1138.64 3329.27 1139.81 3321.55 1141.18 3320.18C1142.55 3318.81 1145.59 3317.64 1145.59 3317.64C1145.59 3317.64 1142.55 3316.47 1141.18 3315.1C1139.81 3313.73 1138.64 3306 1138.64 3306Z" fill="white"/>
</g>
<path d="M1138.64 3312.25C1138.64 3312.25 1138.09 3315.82 1137.46 3316.46C1136.83 3317.09 1135.42 3317.63 1135.42 3317.63C1135.42 3317.63 1136.83 3318.17 1137.46 3318.81C1138.09 3319.44 1138.64 3323.02 1138.64 3323.02C1138.64 3323.02 1139.18 3319.44 1139.81 3318.81C1140.45 3318.17 1141.85 3317.63 1141.85 3317.63C1141.85 3317.63 1140.45 3317.09 1139.81 3316.46C1139.18 3315.82 1138.64 3312.25 1138.64 3312.25Z" fill="white"/>
<g opacity="0.8" filter="url(#filter2_f_3940_302)">
<path d="M256.002 3253C256.002 3253 256.706 3257.65 257.53 3258.47C258.355 3259.3 260.186 3260 260.186 3260C260.186 3260 258.355 3260.71 257.53 3261.53C256.706 3262.35 256.002 3267 256.002 3267C256.002 3267 255.298 3262.35 254.473 3261.53C253.649 3260.71 251.818 3260 251.818 3260C251.818 3260 253.649 3259.3 254.473 3258.47C255.298 3257.65 256.002 3253 256.002 3253Z" fill="white"/>
</g>
<path d="M256.002 3256.77C256.002 3256.77 256.328 3258.92 256.709 3259.3C257.091 3259.68 257.938 3260.01 257.938 3260.01C257.938 3260.01 257.091 3260.33 256.709 3260.71C256.328 3261.09 256.002 3263.24 256.002 3263.24C256.002 3263.24 255.676 3261.09 255.295 3260.71C254.913 3260.33 254.066 3260.01 254.066 3260.01C254.066 3260.01 254.913 3259.68 255.295 3259.3C255.676 3258.92 256.002 3256.77 256.002 3256.77Z" fill="white"/>
<circle cx="1273.5" cy="3167.5" r="0.5" transform="rotate(180 1273.5 3167.5)" fill="white"/>
<circle cx="1123.5" cy="3281.5" r="0.5" transform="rotate(180 1123.5 3281.5)" fill="white"/>
<circle cx="1270" cy="3146" r="1" transform="rotate(180 1270 3146)" fill="white"/>
<circle cx="1114" cy="3144" r="1" transform="rotate(180 1114 3144)" fill="white"/>
<circle cx="1" cy="1" r="1" transform="matrix(1 0 0 -1 124 3128)" fill="white"/>
<circle cx="1" cy="1" r="1" transform="matrix(1 0 0 -1 375 3311)" fill="white"/>
<circle cx="1" cy="1" r="1" transform="matrix(1 0 0 -1 236 3238)" fill="white"/>
<circle cx="1222" cy="3174" r="1" fill="white"/>
<circle cx="1072" cy="3288" r="1" fill="white"/>
<path d="M1188.87 507C1187.55 507 1187.88 509.569 1188.87 509.569C1190.2 509.141 1190.2 507 1188.87 507Z" fill="#8B8B8B"/>
<path d="M141.843 535C140.519 535 140.85 537.569 142.173 537.569C143.497 537.141 143.166 535 141.843 535Z" fill="#8B8B8B"/>
<g opacity="0.8" filter="url(#filter3_f_3940_302)">
<path d="M1245.64 286C1245.64 286 1244.47 293.726 1243.1 295.096C1241.73 296.466 1238.68 297.636 1238.68 297.636C1238.68 297.636 1241.73 298.807 1243.1 300.177C1244.47 301.547 1245.64 309.273 1245.64 309.273C1245.64 309.273 1246.81 301.547 1248.18 300.177C1249.55 298.807 1252.59 297.636 1252.59 297.636C1252.59 297.636 1249.55 296.466 1248.18 295.096C1246.81 293.726 1245.64 286 1245.64 286Z" fill="white"/>
</g>
<path d="M1245.64 292.25C1245.64 292.25 1245.09 295.824 1244.46 296.458C1243.83 297.092 1242.42 297.634 1242.42 297.634C1242.42 297.634 1243.83 298.175 1244.46 298.809C1245.09 299.443 1245.64 303.017 1245.64 303.017C1245.64 303.017 1246.18 299.443 1246.81 298.809C1247.45 298.175 1248.85 297.634 1248.85 297.634C1248.85 297.634 1247.45 297.092 1246.81 296.458C1246.18 295.824 1245.64 292.25 1245.64 292.25Z" fill="white"/>
<g opacity="0.8" filter="url(#filter4_f_3940_302)">
<path d="M237.502 211C237.502 211 236.043 220.629 234.336 222.336C232.629 224.044 228.836 225.502 228.836 225.502C228.836 225.502 232.629 226.96 234.336 228.668C236.043 230.375 237.502 240.004 237.502 240.004C237.502 240.004 238.96 230.375 240.668 228.668C242.375 226.96 246.168 225.502 246.168 225.502C246.168 225.502 242.375 224.044 240.668 222.336C238.96 220.629 237.502 211 237.502 211Z" fill="white"/>
</g>
<path d="M237.502 218.797C237.502 218.797 236.827 223.252 236.037 224.042C235.247 224.831 233.493 225.506 233.493 225.506C233.493 225.506 235.247 226.181 236.037 226.971C236.827 227.761 237.502 232.216 237.502 232.216C237.502 232.216 238.177 227.761 238.967 226.971C239.757 226.181 241.511 225.506 241.511 225.506C241.511 225.506 239.757 224.831 238.967 224.042C238.177 223.252 237.502 218.797 237.502 218.797Z" fill="white"/>
<g opacity="0.8" filter="url(#filter5_f_3940_302)">
<path d="M183.002 225C183.002 225 182.298 229.649 181.473 230.473C180.649 231.298 178.818 232.002 178.818 232.002C178.818 232.002 180.649 232.706 181.473 233.53C182.298 234.355 183.002 239.004 183.002 239.004C183.002 239.004 183.706 234.355 184.53 233.53C185.355 232.706 187.186 232.002 187.186 232.002C187.186 232.002 185.355 231.298 184.53 230.473C183.706 229.649 183.002 225 183.002 225Z" fill="white"/>
</g>
<path d="M183.002 228.766C183.002 228.766 182.676 230.917 182.295 231.298C181.913 231.679 181.066 232.005 181.066 232.005C181.066 232.005 181.913 232.331 182.295 232.712C182.676 233.094 183.002 235.245 183.002 235.245C183.002 235.245 183.328 233.094 183.709 232.712C184.091 232.331 184.938 232.005 184.938 232.005C184.938 232.005 184.091 231.679 183.709 231.298C183.328 230.917 183.002 228.766 183.002 228.766Z" fill="white"/>
<g opacity="0.8" filter="url(#filter6_f_3940_302)">
<path d="M326.998 588C326.998 588 327.702 592.649 328.527 593.473C329.351 594.298 331.182 595.002 331.182 595.002C331.182 595.002 329.351 595.706 328.527 596.53C327.702 597.355 326.998 602.004 326.998 602.004C326.998 602.004 326.294 597.355 325.47 596.53C324.645 595.706 322.814 595.002 322.814 595.002C322.814 595.002 324.645 594.298 325.47 593.473C326.294 592.649 326.998 588 326.998 588Z" fill="white"/>
</g>
<path d="M245.998 604.766C245.998 604.766 246.324 606.917 246.705 607.298C247.087 607.679 247.934 608.005 247.934 608.005C247.934 608.005 247.087 608.331 246.705 608.712C246.324 609.094 245.998 611.245 245.998 611.245C245.998 611.245 245.672 609.094 245.291 608.712C244.909 608.331 244.062 608.005 244.062 608.005C244.062 608.005 244.909 607.679 245.291 607.298C245.672 606.917 245.998 604.766 245.998 604.766Z" fill="white"/>
<g opacity="0.8" filter="url(#filter7_f_3940_302)">
<path d="M1195 561C1195 561 1195.71 565.649 1196.53 566.473C1197.35 567.298 1199.19 568.002 1199.19 568.002C1199.19 568.002 1197.35 568.706 1196.53 569.53C1195.71 570.355 1195 575.004 1195 575.004C1195 575.004 1194.3 570.355 1193.47 569.53C1192.65 568.706 1190.82 568.002 1190.82 568.002C1190.82 568.002 1192.65 567.298 1193.47 566.473C1194.3 565.649 1195 561 1195 561Z" fill="white"/>
</g>
<path d="M1195 564.766C1195 564.766 1195.33 566.917 1195.71 567.298C1196.09 567.679 1196.94 568.005 1196.94 568.005C1196.94 568.005 1196.09 568.331 1195.71 568.712C1195.33 569.094 1195 571.245 1195 571.245C1195 571.245 1194.68 569.094 1194.29 568.712C1193.91 568.331 1193.07 568.005 1193.07 568.005C1193.07 568.005 1193.91 567.679 1194.29 567.298C1194.68 566.917 1195 564.766 1195 564.766Z" fill="white"/>
<circle cx="1233.5" cy="260.5" r="0.5" transform="rotate(180 1233.5 260.5)" fill="white"/>
<circle cx="302" cy="197" r="1" transform="rotate(180 302 197)" fill="white"/>
<circle cx="1242" cy="255" r="1" transform="rotate(180 1242 255)" fill="white"/>
<circle cx="1" cy="1" r="1" transform="matrix(1 0 0 -1 199 566)" fill="white"/>
<circle cx="1" cy="1" r="1" transform="matrix(1 0 0 -1 1257 478)" fill="white"/>
<circle cx="1" cy="1" r="1" transform="matrix(1 0 0 -1 130 551)" fill="white"/>
<circle cx="1" cy="1" r="1" transform="matrix(1 0 0 -1 1175 546)" fill="white"/>
<circle cx="814" cy="342" r="1" transform="rotate(180 814 342)" fill="white"/>
<circle cx="90" cy="308" r="1" transform="rotate(180 90 308)" fill="white"/>
<circle cx="478" cy="192" r="1" transform="rotate(180 478 192)" fill="white"/>
<circle cx="1216" cy="287" r="1" fill="white"/>
<circle cx="782" cy="361" r="1" fill="white"/>
<defs>
<filter id="filter0_f_3940_302" x="123.683" y="3075" width="43.9071" height="53.2725" filterUnits="userSpaceOnUse" color-interpolation-filters="sRGB">
<feFlood flood-opacity="0" result="BackgroundImageFix"/>
<feBlend mode="normal" in="SourceGraphic" in2="BackgroundImageFix" result="shape"/>
<feGaussianBlur stdDeviation="7.5" result="effect1_foregroundBlur_3940_302"/>
</filter>
<filter id="filter1_f_3940_302" x="1116.68" y="3291" width="43.9071" height="53.2725" filterUnits="userSpaceOnUse" color-interpolation-filters="sRGB">
<feFlood flood-opacity="0" result="BackgroundImageFix"/>
<feBlend mode="normal" in="SourceGraphic" in2="BackgroundImageFix" result="shape"/>
<feGaussianBlur stdDeviation="7.5" result="effect1_foregroundBlur_3940_302"/>
</filter>
<filter id="filter2_f_3940_302" x="236.818" y="3238" width="38.3684" height="44.0039" filterUnits="userSpaceOnUse" color-interpolation-filters="sRGB">
<feFlood flood-opacity="0" result="BackgroundImageFix"/>
<feBlend mode="normal" in="SourceGraphic" in2="BackgroundImageFix" result="shape"/>
<feGaussianBlur stdDeviation="7.5" result="effect1_foregroundBlur_3940_302"/>
</filter>
<filter id="filter3_f_3940_302" x="1223.68" y="271" width="43.9071" height="53.2727" filterUnits="userSpaceOnUse" color-interpolation-filters="sRGB">
<feFlood flood-opacity="0" result="BackgroundImageFix"/>
<feBlend mode="normal" in="SourceGraphic" in2="BackgroundImageFix" result="shape"/>
<feGaussianBlur stdDeviation="7.5" result="effect1_foregroundBlur_3940_302"/>
</filter>
<filter id="filter4_f_3940_302" x="213.836" y="196" width="47.3319" height="59.0039" filterUnits="userSpaceOnUse" color-interpolation-filters="sRGB">
<feFlood flood-opacity="0" result="BackgroundImageFix"/>
<feBlend mode="normal" in="SourceGraphic" in2="BackgroundImageFix" result="shape"/>
<feGaussianBlur stdDeviation="7.5" result="effect1_foregroundBlur_3940_302"/>
</filter>
<filter id="filter5_f_3940_302" x="163.818" y="210" width="38.3684" height="44.0039" filterUnits="userSpaceOnUse" color-interpolation-filters="sRGB">
<feFlood flood-opacity="0" result="BackgroundImageFix"/>
<feBlend mode="normal" in="SourceGraphic" in2="BackgroundImageFix" result="shape"/>
<feGaussianBlur stdDeviation="7.5" result="effect1_foregroundBlur_3940_302"/>
</filter>
<filter id="filter6_f_3940_302" x="307.814" y="573" width="38.3684" height="44.0039" filterUnits="userSpaceOnUse" color-interpolation-filters="sRGB">
<feFlood flood-opacity="0" result="BackgroundImageFix"/>
<feBlend mode="normal" in="SourceGraphic" in2="BackgroundImageFix" result="shape"/>
<feGaussianBlur stdDeviation="7.5" result="effect1_foregroundBlur_3940_302"/>
</filter>
<filter id="filter7_f_3940_302" x="1175.82" y="546" width="38.3684" height="44.0039" filterUnits="userSpaceOnUse" color-interpolation-filters="sRGB">
<feFlood flood-opacity="0" result="BackgroundImageFix"/>
<feBlend mode="normal" in="SourceGraphic" in2="BackgroundImageFix" result="shape"/>
<feGaussianBlur stdDeviation="7.5" result="effect1_foregroundBlur_3940_302"/>
</filter>
</defs>
</svg>
