<svg width="1920" height="808" viewBox="0 0 1920 808" fill="none" xmlns="http://www.w3.org/2000/svg">
<rect x="277" width="1366" height="591" fill="#0C141A"/>
<g opacity="0.4" filter="url(#filter0_f_3940_304)">
<path d="M424.324 232.281L401.615 292.895V506.557L618.764 518.68H965.067L1480.26 421.698L1472.65 141.338H1357.48L1366.45 389.876H1303.63L1266.56 112.226L1274.68 347.714H1259.46L1226.97 97L1150.85 106.136L1110.25 421.698L681.134 434.904L684.968 264.373L676.955 167.121L618.764 118.63L612.135 242.545L601.733 389.876L559.746 402.162L553.478 191.367L544.962 118.63H512.469L516.941 389.876H498.414L483.945 191.367H465.483L474.97 389.876H443.559L424.324 232.281Z" fill="#660000"/>
</g>
<g opacity="0.4" filter="url(#filter1_f_3940_304)">
<path d="M583.709 318.281L561 378.895V592.557L778.149 604.68H1124.45L1639.65 507.698L1632.04 227.338H1516.86L1525.84 475.876H1463.02L1425.95 198.226L1434.07 433.714H1418.84L1386.36 183L1310.23 192.136L1269.63 507.698L840.519 520.904L844.352 350.373L836.339 253.121L778.149 204.63L771.52 328.545L761.118 475.876L719.131 488.162L712.862 277.367L704.347 204.63H671.854L676.326 475.876H657.798L643.329 277.367H624.867L634.355 475.876H602.943L583.709 318.281Z" fill="#660000"/>
</g>
<g opacity="0.4" filter="url(#filter2_f_3940_304)">
<path d="M1323.94 366.281L1346.65 426.895V640.557L1129.5 652.68H783.197L268 555.698L275.61 275.338H390.785L381.81 523.876H444.633L481.703 246.226L473.582 481.714H488.808L521.289 231L597.416 240.136L638.018 555.698L1067.13 568.904L1063.3 398.373L1071.31 301.121L1129.5 252.63L1136.13 376.545L1146.53 523.876L1188.52 536.162L1194.79 325.367L1203.3 252.63H1235.79L1231.32 523.876H1249.85L1264.32 325.367H1282.78L1273.29 523.876H1304.71L1323.94 366.281Z" fill="#660000"/>
</g>
<g filter="url(#filter3_f_3940_304)">
<path d="M1550.64 445.805L1566.5 450.706C1567.72 451.083 1569.03 451.025 1570.22 450.541C1573.85 449.057 1577.82 451.726 1577.82 455.647V576.995C1577.82 588.041 1568.87 596.995 1557.82 596.995H1134C1122.95 596.995 1114 588.041 1114 576.995V545.935C1114 540.217 1116.45 534.772 1120.72 530.976L1125.75 526.515C1127.89 524.617 1130.41 523.199 1133.15 522.358L1134.75 521.864C1135.79 521.545 1136.85 521.311 1137.92 521.164L1158.24 518.385L1165.78 517.609C1169.2 517.258 1172.64 517.791 1175.79 519.157L1177.12 519.732C1179.63 520.822 1182.34 521.385 1185.08 521.385H1185.34C1186.4 521.385 1187.45 521.302 1188.49 521.136L1193.61 520.321C1194.65 520.156 1195.67 519.908 1196.68 519.581L1204.36 517.073L1207.57 516.251C1210.75 515.437 1214.09 515.428 1217.27 516.224C1219.52 516.786 1221.85 516.948 1224.15 516.705L1240.16 515.011L1259.73 512.548C1263.48 512.075 1267.02 510.548 1269.94 508.143L1271.03 507.247C1271.57 506.8 1272.16 506.417 1272.79 506.103C1275.06 504.967 1277.69 504.815 1280.14 505.496C1285.62 507.022 1295 509.096 1306.34 510.137C1321.04 511.487 1330.33 509.575 1333.15 508.45L1360.54 499.613C1361.65 499.256 1362.72 498.803 1363.75 498.26L1391.95 483.349C1393.76 482.391 1395.91 482.327 1397.78 483.175C1399.8 484.091 1402.14 483.939 1404.02 482.769L1419.38 473.206L1427.84 467.871C1430.22 466.37 1433.11 465.911 1435.84 466.6L1444.44 468.774C1446.56 469.311 1448.62 467.705 1448.62 465.513C1448.62 464.563 1449.03 463.657 1449.73 463.019L1451.32 461.583C1452.14 460.841 1453.1 460.273 1454.14 459.913L1458.28 458.488C1460.55 457.706 1462.99 457.56 1465.33 458.066L1468.07 458.658C1470.35 459.149 1472.72 458.551 1474.49 457.041L1474.67 456.893C1477.02 454.883 1480.41 454.619 1483.05 456.238C1484.17 456.928 1485.47 457.293 1486.79 457.293H1493.48C1495.38 457.293 1497.27 457.581 1499.08 458.147C1501.79 458.996 1504.67 459.215 1507.48 458.789L1513.18 457.926C1515.92 457.511 1518.51 456.4 1520.69 454.699C1523.53 452.489 1527.03 451.29 1530.63 451.29H1533.31C1536 451.29 1538.58 450.222 1540.48 448.321C1543.14 445.663 1547.05 444.695 1550.64 445.805Z" fill="#FF0000"/>
</g>
<g filter="url(#filter4_f_3940_304)">
<path d="M575.181 465.805L559.323 470.706C558.102 471.083 556.788 471.025 555.605 470.541C551.976 469.057 548 471.726 548 475.647V596.995C548 608.041 556.954 616.995 568 616.995H991.821C1002.87 616.995 1011.82 608.041 1011.82 596.995V565.935C1011.82 560.217 1009.37 554.772 1005.1 550.976L1000.07 546.515C997.931 544.617 995.41 543.199 992.676 542.358L991.07 541.864C990.034 541.545 988.973 541.311 987.899 541.164L967.58 538.385L960.04 537.609C956.626 537.258 953.178 537.791 950.03 539.157L948.706 539.732C946.193 540.822 943.483 541.385 940.744 541.385H940.478C939.426 541.385 938.375 541.302 937.336 541.136L932.211 540.321C931.171 540.156 930.146 539.908 929.145 539.581L921.464 537.073L918.248 536.251C915.068 535.437 911.735 535.428 908.55 536.224C906.304 536.786 903.976 536.948 901.673 536.705L885.658 535.011L866.095 532.548C862.342 532.075 858.8 530.548 855.88 528.143L854.792 527.247C854.25 526.8 853.659 526.417 853.031 526.103C850.761 524.967 848.131 524.815 845.685 525.496C840.206 527.022 830.819 529.096 819.483 530.137C804.786 531.487 795.488 529.575 792.676 528.45L765.282 519.613C764.175 519.256 763.101 518.803 762.073 518.26L733.873 503.349C732.061 502.391 729.907 502.327 728.041 503.175C726.025 504.091 723.685 503.939 721.805 502.769L706.442 493.206L697.983 487.871C695.604 486.37 692.714 485.911 689.986 486.6L681.385 488.774C679.26 489.311 677.198 487.705 677.198 485.513C677.198 484.563 676.796 483.657 676.091 483.019L674.503 481.583C673.684 480.841 672.723 480.273 671.678 479.913L667.543 478.488C665.275 477.706 662.836 477.56 660.491 478.066L657.75 478.658C655.475 479.149 653.101 478.551 651.329 477.041L651.156 476.893C648.799 474.883 645.416 474.619 642.774 476.238C641.649 476.928 640.355 477.293 639.035 477.293H632.338C630.441 477.293 628.554 477.581 626.743 478.147C624.026 478.996 621.152 479.215 618.338 478.789L612.64 477.926C609.901 477.511 607.315 476.4 605.128 474.699C602.287 472.489 598.791 471.29 595.192 471.29H592.507C589.819 471.29 587.241 470.222 585.34 468.321C582.682 465.663 578.772 464.695 575.181 465.805Z" fill="#FF0000"/>
</g>
<g opacity="0.4" filter="url(#filter5_f_3940_304)">
<path d="M350 92L329.5 386.5L1587.5 415L1514 47.5H1485L1451.5 316L1378 281L1319 12.5H1288.5C1279.5 93.5 1261.2 153.3 1260 164.5C1258.8 175.7 1101.5 169.167 1023 164.5L986.5 30.5H954.5L916 176H825L692 12.5H641L610 145.5L426 164.5L391.5 52.5L350 92Z" fill="#660000"/>
</g>
<path opacity="0.03" d="M505.534 70L366 110.874L443.943 553L614 525.75L505.534 70Z" fill="url(#paint0_linear_3940_304)" stroke="black"/>
<path opacity="0.03" d="M324.086 76L229 116.874L282.114 559L398 531.75L324.086 76Z" fill="url(#paint1_linear_3940_304)" stroke="black"/>
<path opacity="0.03" d="M1628.53 61L1489 101.874L1566.94 544L1737 516.75L1628.53 61Z" fill="url(#paint2_linear_3940_304)" stroke="black"/>
<path opacity="0.03" d="M660.534 105L521 145.874L598.943 588L769 560.75L660.534 105Z" fill="url(#paint3_linear_3940_304)" stroke="black"/>
<path opacity="0.03" d="M740.534 125L601 165.874L678.943 608L849 580.75L740.534 125Z" fill="url(#paint4_linear_3940_304)" stroke="black"/>
<path opacity="0.03" d="M864.534 154L725 194.874L802.943 637L973 609.75L864.534 154Z" fill="url(#paint5_linear_3940_304)" stroke="black"/>
<path opacity="0.03" d="M1277.53 127L1138 167.874L1215.94 610L1386 582.75L1277.53 127Z" fill="url(#paint6_linear_3940_304)" stroke="black"/>
<path opacity="0.03" d="M1380.53 125L1241 165.874L1318.94 608L1489 580.75L1380.53 125Z" fill="url(#paint7_linear_3940_304)" stroke="black"/>
<path opacity="0.03" d="M1498.53 105L1359 145.874L1436.94 588L1607 560.75L1498.53 105Z" fill="url(#paint8_linear_3940_304)" stroke="black"/>
<path opacity="0.03" d="M1157.63 134L1097.43 174.874L1157.63 609.999L1231 582.749L1157.63 134Z" fill="url(#paint9_linear_3940_304)" stroke="black"/>
<path opacity="0.03" d="M1023.2 127L963 167.874L1023.2 602.999L1096.57 575.749L1023.2 127Z" fill="url(#paint10_linear_3940_304)" stroke="black"/>
<path opacity="0.03" d="M1074.2 125L1014 165.874L1074.2 600.999L1147.57 573.749L1074.2 125Z" fill="url(#paint11_linear_3940_304)" stroke="black"/>
<path opacity="0.03" d="M407.202 105L347 145.874L407.202 580.999L480.574 553.749L407.202 105Z" fill="url(#paint12_linear_3940_304)" stroke="black"/>
<path opacity="0.03" d="M986.202 132L926 172.874L986.202 607.999L1059.57 580.749L986.202 132Z" fill="url(#paint13_linear_3940_304)" stroke="black"/>
<path d="M1626.34 497.15L1644.05 497.699C1644.7 497.719 1645.34 497.795 1645.98 497.925C1651.23 499.005 1655 503.628 1655 508.99V621H1186.24C1184.94 621 1183.64 620.874 1182.37 620.622L1122.1 608.743C1103.22 605.021 1099.98 579.39 1117.34 571.08L1156.01 552.569C1157.54 551.834 1159.17 551.298 1160.84 550.974L1184.29 546.43L1197.56 543.479C1198.55 543.259 1199.52 542.964 1200.46 542.597L1204.77 540.924C1207.29 539.942 1209.55 538.376 1211.36 536.353C1212.95 534.567 1214.9 533.135 1217.08 532.147L1233.81 524.561C1238.33 522.514 1243.45 522.218 1248.17 523.73L1257.02 526.565C1260.63 527.721 1264.5 527.827 1268.17 526.87L1271.87 525.904L1276.1 525.041C1278.71 524.508 1281.4 524.502 1284.02 525.024L1285.65 525.35C1287.49 525.718 1289.37 525.824 1291.25 525.666L1308.21 524.233L1333.74 520.222C1336.55 519.78 1339.24 518.741 1341.62 517.175L1343.53 515.916C1344.16 515.504 1344.83 515.157 1345.52 514.879C1347.81 513.968 1350.32 513.847 1352.72 514.384C1358.25 515.623 1367.86 517.331 1379.48 518.183C1391.7 519.079 1400.24 518.202 1404.5 517.355C1405.97 517.061 1407.44 516.752 1408.94 516.626L1440.6 513.957C1444.34 513.641 1448.1 514.387 1451.44 516.109L1457.34 519.152C1461.09 521.085 1465.38 521.723 1469.53 520.965L1470.91 520.712C1474.99 519.968 1479.19 520.866 1482.6 523.209L1483.89 524.093C1487.82 526.784 1492.89 527.126 1497.14 524.987L1497.37 524.868C1500.7 523.195 1504.59 523.09 1508 524.582L1508.64 524.862C1511.11 525.947 1513.91 526.054 1516.46 525.162C1518.65 524.397 1521.03 524.365 1523.24 525.07L1523.88 525.273C1526.47 526.102 1529.27 526.073 1531.85 525.191L1537.23 523.352C1539.4 522.611 1541.7 522.357 1543.98 522.608L1554.29 523.745C1555.55 523.884 1556.74 523.128 1557.14 521.928C1557.59 520.588 1559 519.825 1560.37 520.18L1563.95 521.106C1566.13 521.673 1568.27 520.021 1568.27 517.759C1568.27 516.158 1569.37 514.767 1570.93 514.396L1577.32 512.872C1578.47 512.597 1579.66 512.498 1580.85 512.578L1587.26 513.015C1591.43 513.3 1595.46 511.391 1597.88 507.976C1600.13 504.797 1603.79 502.908 1607.68 502.908H1609.47C1612.46 502.908 1615.36 501.892 1617.7 500.026C1620.15 498.073 1623.21 497.053 1626.34 497.15Z" fill="#380000"/>
<path fill-rule="evenodd" clip-rule="evenodd" d="M282.614 467.784H280.599C278.611 467.784 277 469.395 277 471.383V691.18H957V698.18H1298.61C1303.75 698.18 1308.45 696.235 1312 693.033V698.18H1653C1664.05 698.18 1673 689.225 1673 678.18V600.353C1673 595.709 1669.24 591.945 1664.59 591.945C1663.34 591.945 1662.11 592.223 1660.98 592.76L1659.32 593.549C1656.81 594.742 1654.04 595.284 1651.27 595.125L1643.23 594.663H1639.98C1638.99 594.663 1637.99 594.58 1637.02 594.413L1636.86 594.387C1634.8 594.037 1632.82 593.308 1631.03 592.237C1628.42 590.674 1625.43 589.849 1622.38 589.849H1615.26H1602.5L1591.65 590.924C1589.41 591.146 1587.16 590.989 1584.97 590.462L1581.43 589.604C1579.89 589.232 1578.31 589.044 1576.73 589.044H1576.54C1575.2 589.044 1573.87 589.178 1572.56 589.444L1558.17 592.366L1549.88 593.722C1548.43 593.958 1546.97 594.035 1545.51 593.952L1517.77 592.366L1509.03 591.395C1508.22 591.306 1507.46 590.991 1506.82 590.486C1505.69 589.586 1504.19 589.314 1502.81 589.764L1497.79 591.408C1494.75 592.404 1491.45 592.273 1488.49 591.039L1484.68 589.828C1484.06 589.63 1483.42 590.095 1483.42 590.749C1483.42 591.254 1483.03 591.674 1482.53 591.713L1477.16 592.135C1476.22 592.209 1475.27 592.086 1474.38 591.774L1467.96 589.525C1466.82 589.126 1465.64 588.851 1464.45 588.703L1460.72 588.244C1459.53 588.098 1458.42 587.571 1457.55 586.743C1456.52 585.753 1455.14 585.2 1453.71 585.2H1452.02H1449.39C1448.31 585.2 1447.24 585.351 1446.2 585.65L1441.69 586.949C1440.69 587.239 1439.6 586.991 1438.82 586.292C1438.46 585.971 1438.03 585.74 1437.57 585.617L1435.99 585.2C1434.69 584.668 1433.3 584.394 1431.9 584.394H1426.83H1423.64C1422.5 584.394 1421.37 584.204 1420.3 583.83L1418.76 583.299C1416.73 582.593 1414.49 582.874 1412.69 584.058C1411.56 584.803 1410.24 585.2 1408.89 585.2H1402.08C1400.6 585.2 1399.12 585.463 1397.73 585.978C1396.96 586.264 1396.15 586.473 1395.34 586.602L1393.59 586.878C1391.34 587.233 1389.04 587.201 1386.8 586.784L1384.79 586.408L1378.45 584.908C1377.04 584.573 1375.55 584.656 1374.18 585.148C1372.99 585.578 1371.7 585.697 1370.44 585.492L1364.86 584.585C1364.09 584.459 1363.36 584.159 1362.72 583.706C1361.38 582.748 1359.65 582.501 1358.1 583.042L1354.2 584.394L1350.36 585.935C1347.98 586.893 1345.34 587.014 1342.87 586.279C1341.82 585.964 1340.72 585.804 1339.62 585.804H1334.3C1333.28 585.804 1332.27 585.726 1331.26 585.571L1330.36 585.432C1329.35 585.278 1328.34 585.2 1327.32 585.2H1324.72C1323.55 585.2 1322.38 585.065 1321.24 584.797C1320.1 584.529 1318.93 584.394 1317.76 584.394H1315.6C1314.89 584.394 1314.22 584.601 1313.66 584.958C1312.92 584.776 1312.13 584.68 1311.33 584.68C1307.84 584.68 1304.61 586.525 1302.83 589.531L1302.68 589.792C1300.72 593.107 1297.1 595.069 1293.25 594.893L1288.23 594.663H1284.98C1283.99 594.663 1282.99 594.58 1282.02 594.413L1281.86 594.387C1279.8 594.037 1277.82 593.308 1276.03 592.237C1273.42 590.674 1270.43 589.849 1267.38 589.849H1260.26H1247.5L1236.65 590.924C1234.41 591.146 1232.16 590.989 1229.97 590.462L1226.43 589.604C1224.89 589.232 1223.31 589.044 1221.73 589.044H1221.54C1220.2 589.044 1218.87 589.178 1217.56 589.444L1203.17 592.366L1197.74 593.255C1194.43 593.795 1191.05 593.498 1187.89 592.392L1180.36 589.751C1178.79 589.202 1177.16 588.851 1175.51 588.704L1164.4 587.716C1162.18 587.52 1160.08 586.662 1158.36 585.254L1157.84 584.828C1153.28 581.095 1146.53 581.881 1142.95 586.564L1142.12 587.657L1135.6 580.931C1132.61 577.846 1128.71 575.805 1124.47 575.11L1111.45 572.976C1109.49 572.656 1107.6 572.047 1105.82 571.169L1095.49 566.062C1090.94 563.814 1085.55 564.075 1081.24 566.752C1078.32 568.568 1074.85 569.299 1071.45 568.818L1061.91 567.47H1050.57C1047.61 567.47 1044.73 568.449 1042.37 570.255C1039.28 572.634 1035.3 573.55 1031.48 572.768L1024.81 571.403C1023.6 571.156 1022.36 571.167 1021.16 571.436L1020.09 571.674C1017.82 572.184 1015.97 573.83 1015.2 576.031C1014.63 577.657 1013.46 579.004 1011.93 579.795L1011.54 579.996C1008.59 581.521 1005 581.027 1002.57 578.762L993.772 570.55C993.071 569.896 992.274 569.354 991.408 568.944C989.401 567.993 987.12 567.791 984.977 568.374L980.609 569.563L977.452 570.591C973.723 571.805 969.659 571.434 966.213 569.563L955.416 562.447L952.37 560.977C948.708 559.208 944.593 558.599 940.575 559.229L929.405 560.982L911.573 564.959L907.789 565.754C902.783 566.807 897.609 564.964 894.396 560.982L893.215 559.229C891.322 556.42 888.607 554.265 885.443 553.059C883.575 552.347 881.593 551.982 879.594 551.982H872.638H871.667C868.021 551.982 864.445 550.986 861.325 549.101L860.205 548.424L858.912 547.792C854.105 545.444 848.439 545.682 843.846 548.424L841.684 549.375C839.729 550.235 837.499 550.222 835.554 549.339C834.239 548.742 833.124 547.778 832.342 546.564L830.029 542.97C829.326 541.879 828.366 540.978 827.233 540.346C824.421 538.777 820.937 539.073 818.429 541.093L818.162 541.308L815.767 542.968C814.75 543.673 813.817 544.493 812.987 545.411L811.951 546.557C809.552 549.212 806.142 550.726 802.564 550.726C800.768 550.726 798.994 550.344 797.357 549.605L791.497 546.959L782.468 542.009C781.617 541.542 780.734 541.138 779.825 540.8L775.289 539.113C772.906 538.227 770.861 536.615 769.443 534.505L768.907 533.708C765.88 529.204 759.958 527.605 755.039 529.897C752.332 531.158 749.19 531.255 746.421 530.136L746.043 529.983C745.054 529.583 744.147 529.003 743.37 528.271L739.616 524.738C738.775 523.947 737.49 523.867 736.558 524.549C735.532 525.299 734.099 525.118 733.292 524.137L731.458 521.908L724.933 513.445L720.48 508.258C717.027 504.235 711.989 501.92 706.687 501.92H703.426C701.229 501.92 699.104 501.141 697.427 499.721L694.495 497.238C692.616 495.646 689.848 495.695 688.026 497.352C686.046 499.153 682.988 499.034 681.154 497.084L677.5 493.199C675.915 491.514 673.81 490.409 671.522 490.063L667.005 489.38C665.921 489.216 664.874 488.867 663.909 488.347L663.592 488.176C662.712 487.702 661.932 487.061 661.297 486.289C659.835 484.512 657.653 483.481 655.351 483.481H650.48H638.047H632.398C629.414 483.481 626.551 484.658 624.429 486.756C621.974 489.183 618.546 490.359 615.117 489.95L608.274 489.132H605.421C604.169 489.132 602.926 488.92 601.746 488.503C599.81 487.82 598.104 486.611 596.817 485.013L596.287 484.354C593.626 481.047 589.61 479.124 585.365 479.124H580.299H569.577C568.222 479.124 566.871 479.262 565.544 479.535L559.275 480.826C555.41 481.621 551.389 481.09 547.862 479.318L546.354 478.56C544.902 477.83 543.299 477.45 541.674 477.45C540.282 477.45 538.904 477.729 537.622 478.27L523.206 484.357L517.029 486.456C514.203 487.416 511.198 487.732 508.234 487.38L482.799 484.357L474.32 482.4C473.361 482.179 472.532 481.579 472.024 480.737C470.945 478.951 468.589 478.436 466.864 479.61L463.112 482.162C460.156 484.174 456.216 483.942 453.516 481.598L451.081 479.99C449.951 479.244 448.444 480.054 448.444 481.409C448.444 482.242 447.841 482.952 447.018 483.086L443.289 483.696C441.668 483.96 440.008 483.565 438.681 482.599L433.087 478.527C431.885 477.652 430.527 477.013 429.087 476.645L426.605 476.01C424.89 475.571 423.449 474.411 422.655 472.83C421.616 470.763 419.501 469.458 417.188 469.458H417.035H414.653C413.428 469.458 412.226 469.791 411.176 470.42L407.635 472.54C406.25 473.37 404.454 472.874 403.69 471.453C403.431 470.971 403.038 470.574 402.558 470.311L401.496 469.729C401.168 469.549 400.859 469.336 400.575 469.093C399.584 468.248 398.324 467.784 397.022 467.784H391.842H388.863C387.609 467.784 386.387 467.389 385.37 466.655L384.725 466.19C382.418 464.525 379.199 465.037 377.522 467.335C376.549 468.67 374.997 469.458 373.345 469.458H367.595C365.814 469.458 364.083 470.046 362.671 471.131C361.947 471.686 361.134 472.116 360.267 472.4L359.517 472.646C356.724 473.562 353.699 473.482 350.958 472.42L349.799 471.97L343.658 468.948C342.206 468.234 340.476 468.393 339.179 469.361C338.043 470.208 336.564 470.443 335.222 469.99L329.992 468.222C329.151 467.938 328.426 467.385 327.929 466.649C326.648 464.751 324.05 464.289 322.193 465.629L319.207 467.784L315.179 471.145C313.091 472.887 310.122 473.095 307.811 471.662C306.812 471.043 305.66 470.714 304.485 470.714H299.837C298.472 470.714 297.114 470.502 295.813 470.086C294.512 469.67 293.155 469.458 291.789 469.458H289.872C288.614 469.458 287.373 469.172 286.243 468.621C285.113 468.07 283.872 467.784 282.614 467.784Z" fill="#080101"/>
<circle cx="1389.5" cy="169.5" r="0.5" transform="rotate(180 1389.5 169.5)" fill="white"/>
<circle cx="1566.5" cy="181.5" r="0.5" transform="rotate(180 1566.5 181.5)" fill="white"/>
<circle cx="1500.5" cy="195.5" r="0.5" transform="rotate(180 1500.5 195.5)" fill="white"/>
<circle cx="1542.5" cy="221.5" r="0.5" transform="rotate(180 1542.5 221.5)" fill="white"/>
<circle cx="1419.5" cy="141.5" r="0.5" transform="rotate(180 1419.5 141.5)" fill="white"/>
<circle cx="780.5" cy="205.5" r="0.5" transform="rotate(180 780.5 205.5)" fill="white"/>
<circle cx="381.5" cy="403.5" r="0.5" transform="rotate(180 381.5 403.5)" fill="white"/>
<circle cx="352.5" cy="300.5" r="0.5" transform="rotate(180 352.5 300.5)" fill="white"/>
<circle cx="982.5" cy="130.5" r="0.5" transform="rotate(180 982.5 130.5)" fill="white"/>
<circle cx="375.672" cy="226.232" r="0.5" transform="rotate(153.257 375.672 226.232)" fill="white"/>
<circle cx="414.672" cy="130.669" r="0.5" transform="rotate(153.257 414.672 130.669)" fill="white"/>
<circle cx="357.672" cy="174.669" r="0.5" transform="rotate(153.257 357.672 174.669)" fill="white"/>
<circle cx="1092.5" cy="130.5" r="0.5" transform="rotate(180 1092.5 130.5)" fill="white"/>
<circle cx="1240.5" cy="67.5" r="0.5" transform="rotate(180 1240.5 67.5)" fill="white"/>
<circle cx="1243.5" cy="159.5" r="0.5" transform="rotate(180 1243.5 159.5)" fill="white"/>
<circle cx="473.907" cy="176.732" r="0.5" transform="rotate(153.257 473.907 176.732)" fill="white"/>
<circle cx="392.672" cy="151.669" r="0.5" transform="rotate(153.257 392.672 151.669)" fill="white"/>
<circle cx="744.672" cy="86.6691" r="0.5" transform="rotate(153.257 744.672 86.6691)" fill="white"/>
<circle cx="681.672" cy="194.669" r="0.5" transform="rotate(153.257 681.672 194.669)" fill="white"/>
<circle cx="537.672" cy="85.6691" r="0.5" transform="rotate(153.257 537.672 85.6691)" fill="white"/>
<circle cx="600.672" cy="171.669" r="0.5" transform="rotate(153.257 600.672 171.669)" fill="white"/>
<circle cx="1030.5" cy="133.5" r="0.5" transform="rotate(180 1030.5 133.5)" fill="white"/>
<circle cx="468.672" cy="239.669" r="0.5" transform="rotate(153.257 468.672 239.669)" fill="white"/>
<circle cx="1188.5" cy="51.5" r="0.5" transform="rotate(180 1188.5 51.5)" fill="white"/>
<circle cx="1577.5" cy="302.5" r="0.5" transform="rotate(180 1577.5 302.5)" fill="white"/>
<circle cx="1518.5" cy="372.5" r="0.5" transform="rotate(180 1518.5 372.5)" fill="white"/>
<circle cx="1446.5" cy="210.5" r="0.5" transform="rotate(180 1446.5 210.5)" fill="white"/>
<circle cx="745.5" cy="152.5" r="0.5" transform="rotate(180 745.5 152.5)" fill="white"/>
<circle cx="393.5" cy="382.5" r="0.5" transform="rotate(180 393.5 382.5)" fill="white"/>
<circle cx="972.5" cy="160.5" r="0.5" transform="rotate(180 972.5 160.5)" fill="white"/>
<circle cx="380.243" cy="257.521" r="0.5" transform="rotate(153.257 380.243 257.521)" fill="white"/>
<circle cx="1300" cy="222" r="1" transform="rotate(180 1300 222)" fill="white"/>
<circle cx="1533" cy="223" r="1" transform="rotate(180 1533 223)" fill="white"/>
<circle cx="1011" cy="62" r="1" transform="rotate(180 1011 62)" fill="white"/>
<circle cx="1338" cy="194" r="1" transform="rotate(180 1338 194)" fill="white"/>
<circle cx="1555" cy="164" r="1" transform="rotate(180 1555 164)" fill="white"/>
<circle cx="832" cy="166" r="1" transform="rotate(180 832 166)" fill="white"/>
<circle cx="373" cy="387" r="1" transform="rotate(180 373 387)" fill="white"/>
<circle cx="1527" cy="308" r="1" transform="rotate(180 1527 308)" fill="white"/>
<circle cx="857" cy="162" r="1" transform="rotate(180 857 162)" fill="white"/>
<circle cx="834" cy="91" r="1" transform="rotate(180 834 91)" fill="white"/>
<circle cx="660" cy="133" r="1" transform="rotate(180 660 133)" fill="white"/>
<circle cx="439" cy="368" r="1" transform="rotate(180 439 368)" fill="white"/>
<circle cx="1430" cy="140" r="1" transform="rotate(180 1430 140)" fill="white"/>
<circle cx="1556" cy="403" r="1" transform="rotate(180 1556 403)" fill="white"/>
<circle cx="1554" cy="259" r="1" transform="rotate(180 1554 259)" fill="white"/>
<circle cx="881" cy="153" r="1" transform="rotate(180 881 153)" fill="white"/>
<circle cx="371" cy="368" r="1" transform="rotate(180 371 368)" fill="white"/>
<circle cx="333" cy="319" r="1" transform="rotate(180 333 319)" fill="white"/>
<circle cx="1073" cy="154" r="1" transform="rotate(180 1073 154)" fill="white"/>
<circle cx="1189" cy="168" r="1" transform="rotate(180 1189 168)" fill="white"/>
<circle cx="1242" cy="132" r="1" transform="rotate(180 1242 132)" fill="white"/>
<circle cx="1205" cy="93" r="1" transform="rotate(180 1205 93)" fill="white"/>
<circle cx="1277" cy="81" r="1" transform="rotate(180 1277 81)" fill="white"/>
<circle cx="467.067" cy="206.494" r="1" transform="rotate(153.257 467.067 206.494)" fill="white"/>
<circle cx="1035" cy="124" r="1" transform="rotate(180 1035 124)" fill="white"/>
<circle cx="419.634" cy="196.799" r="1" transform="rotate(153.257 419.634 196.799)" fill="white"/>
<circle cx="402.343" cy="154.346" r="1" transform="rotate(153.257 402.343 154.346)" fill="white"/>
<circle cx="1568" cy="382" r="1" transform="rotate(180 1568 382)" fill="white"/>
<circle cx="893" cy="132" r="1" transform="rotate(180 893 132)" fill="white"/>
<circle cx="808" cy="65" r="1" transform="rotate(180 808 65)" fill="white"/>
<g filter="url(#filter6_f_3940_304)">
<ellipse cx="1713.5" cy="314" rx="145.5" ry="147" fill="#080101"/>
</g>
<g filter="url(#filter7_f_3940_304)">
<ellipse cx="1722.5" cy="455" rx="88.5" ry="89" fill="#080101"/>
</g>
<g filter="url(#filter8_f_3940_304)">
<ellipse cx="1683.5" cy="123" rx="145.5" ry="147" fill="#080101"/>
</g>
<g filter="url(#filter9_f_3940_304)">
<ellipse cx="1714.5" cy="591" rx="145.5" ry="147" fill="#080101"/>
</g>
<g filter="url(#filter10_f_3940_304)">
<ellipse cx="198" cy="294.5" rx="141" ry="123.5" fill="#080101"/>
</g>
<g filter="url(#filter11_f_3940_304)">
<ellipse cx="219" cy="96" rx="141" ry="135" fill="#080101"/>
</g>
<g filter="url(#filter12_f_3940_304)">
<ellipse cx="219" cy="403.5" rx="141" ry="123.5" fill="#080101"/>
</g>
<g filter="url(#filter13_f_3940_304)">
<ellipse cx="180.5" cy="506" rx="132.5" ry="145" fill="#080101"/>
</g>
<defs>
<filter id="filter0_f_3940_304" x="316.215" y="11.6" width="1249.45" height="592.48" filterUnits="userSpaceOnUse" color-interpolation-filters="sRGB">
<feFlood flood-opacity="0" result="BackgroundImageFix"/>
<feBlend mode="normal" in="SourceGraphic" in2="BackgroundImageFix" result="shape"/>
<feGaussianBlur stdDeviation="42.7" result="effect1_foregroundBlur_3940_304"/>
</filter>
<filter id="filter1_f_3940_304" x="475.6" y="97.6" width="1249.45" height="592.48" filterUnits="userSpaceOnUse" color-interpolation-filters="sRGB">
<feFlood flood-opacity="0" result="BackgroundImageFix"/>
<feBlend mode="normal" in="SourceGraphic" in2="BackgroundImageFix" result="shape"/>
<feGaussianBlur stdDeviation="42.7" result="effect1_foregroundBlur_3940_304"/>
</filter>
<filter id="filter2_f_3940_304" x="182.6" y="145.6" width="1249.45" height="592.48" filterUnits="userSpaceOnUse" color-interpolation-filters="sRGB">
<feFlood flood-opacity="0" result="BackgroundImageFix"/>
<feBlend mode="normal" in="SourceGraphic" in2="BackgroundImageFix" result="shape"/>
<feGaussianBlur stdDeviation="42.7" result="effect1_foregroundBlur_3940_304"/>
</filter>
<filter id="filter3_f_3940_304" x="983.9" y="315.252" width="724.021" height="411.843" filterUnits="userSpaceOnUse" color-interpolation-filters="sRGB">
<feFlood flood-opacity="0" result="BackgroundImageFix"/>
<feBlend mode="normal" in="SourceGraphic" in2="BackgroundImageFix" result="shape"/>
<feGaussianBlur stdDeviation="65.05" result="effect1_foregroundBlur_3940_304"/>
</filter>
<filter id="filter4_f_3940_304" x="417.9" y="335.252" width="724.021" height="411.843" filterUnits="userSpaceOnUse" color-interpolation-filters="sRGB">
<feFlood flood-opacity="0" result="BackgroundImageFix"/>
<feBlend mode="normal" in="SourceGraphic" in2="BackgroundImageFix" result="shape"/>
<feGaussianBlur stdDeviation="65.05" result="effect1_foregroundBlur_3940_304"/>
</filter>
<filter id="filter5_f_3940_304" x="244.1" y="-72.9" width="1428.8" height="573.3" filterUnits="userSpaceOnUse" color-interpolation-filters="sRGB">
<feFlood flood-opacity="0" result="BackgroundImageFix"/>
<feBlend mode="normal" in="SourceGraphic" in2="BackgroundImageFix" result="shape"/>
<feGaussianBlur stdDeviation="42.7" result="effect1_foregroundBlur_3940_304"/>
</filter>
<filter id="filter6_f_3940_304" x="1452.3" y="51.3" width="522.4" height="525.4" filterUnits="userSpaceOnUse" color-interpolation-filters="sRGB">
<feFlood flood-opacity="0" result="BackgroundImageFix"/>
<feBlend mode="normal" in="SourceGraphic" in2="BackgroundImageFix" result="shape"/>
<feGaussianBlur stdDeviation="57.85" result="effect1_foregroundBlur_3940_304"/>
</filter>
<filter id="filter7_f_3940_304" x="1518.3" y="250.3" width="408.4" height="409.4" filterUnits="userSpaceOnUse" color-interpolation-filters="sRGB">
<feFlood flood-opacity="0" result="BackgroundImageFix"/>
<feBlend mode="normal" in="SourceGraphic" in2="BackgroundImageFix" result="shape"/>
<feGaussianBlur stdDeviation="57.85" result="effect1_foregroundBlur_3940_304"/>
</filter>
<filter id="filter8_f_3940_304" x="1422.3" y="-139.7" width="522.4" height="525.4" filterUnits="userSpaceOnUse" color-interpolation-filters="sRGB">
<feFlood flood-opacity="0" result="BackgroundImageFix"/>
<feBlend mode="normal" in="SourceGraphic" in2="BackgroundImageFix" result="shape"/>
<feGaussianBlur stdDeviation="57.85" result="effect1_foregroundBlur_3940_304"/>
</filter>
<filter id="filter9_f_3940_304" x="1499.2" y="374.2" width="430.6" height="433.6" filterUnits="userSpaceOnUse" color-interpolation-filters="sRGB">
<feFlood flood-opacity="0" result="BackgroundImageFix"/>
<feBlend mode="normal" in="SourceGraphic" in2="BackgroundImageFix" result="shape"/>
<feGaussianBlur stdDeviation="34.9" result="effect1_foregroundBlur_3940_304"/>
</filter>
<filter id="filter10_f_3940_304" x="-58.7" y="55.3" width="513.4" height="478.4" filterUnits="userSpaceOnUse" color-interpolation-filters="sRGB">
<feFlood flood-opacity="0" result="BackgroundImageFix"/>
<feBlend mode="normal" in="SourceGraphic" in2="BackgroundImageFix" result="shape"/>
<feGaussianBlur stdDeviation="57.85" result="effect1_foregroundBlur_3940_304"/>
</filter>
<filter id="filter11_f_3940_304" x="-37.7" y="-154.7" width="513.4" height="501.4" filterUnits="userSpaceOnUse" color-interpolation-filters="sRGB">
<feFlood flood-opacity="0" result="BackgroundImageFix"/>
<feBlend mode="normal" in="SourceGraphic" in2="BackgroundImageFix" result="shape"/>
<feGaussianBlur stdDeviation="57.85" result="effect1_foregroundBlur_3940_304"/>
</filter>
<filter id="filter12_f_3940_304" x="-37.7" y="164.3" width="513.4" height="478.4" filterUnits="userSpaceOnUse" color-interpolation-filters="sRGB">
<feFlood flood-opacity="0" result="BackgroundImageFix"/>
<feBlend mode="normal" in="SourceGraphic" in2="BackgroundImageFix" result="shape"/>
<feGaussianBlur stdDeviation="57.85" result="effect1_foregroundBlur_3940_304"/>
</filter>
<filter id="filter13_f_3940_304" x="-21.8" y="291.2" width="404.6" height="429.6" filterUnits="userSpaceOnUse" color-interpolation-filters="sRGB">
<feFlood flood-opacity="0" result="BackgroundImageFix"/>
<feBlend mode="normal" in="SourceGraphic" in2="BackgroundImageFix" result="shape"/>
<feGaussianBlur stdDeviation="34.9" result="effect1_foregroundBlur_3940_304"/>
</filter>
<linearGradient id="paint0_linear_3940_304" x1="566.5" y1="537.5" x2="417.5" y2="70" gradientUnits="userSpaceOnUse">
<stop stop-color="white"/>
<stop offset="1" stop-color="white" stop-opacity="0"/>
</linearGradient>
<linearGradient id="paint1_linear_3940_304" x1="365.631" y1="543.5" x2="168" y2="120.944" gradientUnits="userSpaceOnUse">
<stop stop-color="white"/>
<stop offset="1" stop-color="white" stop-opacity="0"/>
</linearGradient>
<linearGradient id="paint2_linear_3940_304" x1="1689.5" y1="528.5" x2="1540.5" y2="61" gradientUnits="userSpaceOnUse">
<stop stop-color="white"/>
<stop offset="1" stop-color="white" stop-opacity="0"/>
</linearGradient>
<linearGradient id="paint3_linear_3940_304" x1="721.5" y1="572.5" x2="572.5" y2="105" gradientUnits="userSpaceOnUse">
<stop stop-color="white"/>
<stop offset="1" stop-color="white" stop-opacity="0"/>
</linearGradient>
<linearGradient id="paint4_linear_3940_304" x1="801.5" y1="592.5" x2="652.5" y2="125" gradientUnits="userSpaceOnUse">
<stop stop-color="white"/>
<stop offset="1" stop-color="white" stop-opacity="0"/>
</linearGradient>
<linearGradient id="paint5_linear_3940_304" x1="925.5" y1="621.5" x2="776.5" y2="154" gradientUnits="userSpaceOnUse">
<stop stop-color="white"/>
<stop offset="1" stop-color="white" stop-opacity="0"/>
</linearGradient>
<linearGradient id="paint6_linear_3940_304" x1="1338.5" y1="594.5" x2="1189.5" y2="127" gradientUnits="userSpaceOnUse">
<stop stop-color="white"/>
<stop offset="1" stop-color="white" stop-opacity="0"/>
</linearGradient>
<linearGradient id="paint7_linear_3940_304" x1="1441.5" y1="592.5" x2="1292.5" y2="125" gradientUnits="userSpaceOnUse">
<stop stop-color="white"/>
<stop offset="1" stop-color="white" stop-opacity="0"/>
</linearGradient>
<linearGradient id="paint8_linear_3940_304" x1="1559.5" y1="572.5" x2="1410.5" y2="105" gradientUnits="userSpaceOnUse">
<stop stop-color="white"/>
<stop offset="1" stop-color="white" stop-opacity="0"/>
</linearGradient>
<linearGradient id="paint9_linear_3940_304" x1="1210.51" y1="594.5" x2="964.385" y2="261.322" gradientUnits="userSpaceOnUse">
<stop stop-color="white"/>
<stop offset="1" stop-color="white" stop-opacity="0"/>
</linearGradient>
<linearGradient id="paint10_linear_3940_304" x1="1076.08" y1="587.5" x2="829.959" y2="254.322" gradientUnits="userSpaceOnUse">
<stop stop-color="white"/>
<stop offset="1" stop-color="white" stop-opacity="0"/>
</linearGradient>
<linearGradient id="paint11_linear_3940_304" x1="1127.08" y1="585.5" x2="880.959" y2="252.322" gradientUnits="userSpaceOnUse">
<stop stop-color="white"/>
<stop offset="1" stop-color="white" stop-opacity="0"/>
</linearGradient>
<linearGradient id="paint12_linear_3940_304" x1="460.079" y1="565.5" x2="213.959" y2="232.322" gradientUnits="userSpaceOnUse">
<stop stop-color="white"/>
<stop offset="1" stop-color="white" stop-opacity="0"/>
</linearGradient>
<linearGradient id="paint13_linear_3940_304" x1="1039.08" y1="592.5" x2="792.959" y2="259.322" gradientUnits="userSpaceOnUse">
<stop stop-color="white"/>
<stop offset="1" stop-color="white" stop-opacity="0"/>
</linearGradient>
</defs>
</svg>
